<mxfile host="app.diagrams.net" modified="2023-12-19T01:33:31.766Z" agent="Mozilla/5.0 (Windows NT 10.0; Win64; x64) AppleWebKit/537.36 (KHTML, like Gecko) Chrome/120.0.0.0 Safari/537.36 Edg/120.0.0.0" etag="r1eKye081JoU53tc7D7I" version="22.1.11" type="github">
  <diagram name="第 1 页" id="YmEcrmGpHDLL9LgO9fGX">
    <mxGraphModel dx="1623" dy="936" grid="1" gridSize="10" guides="1" tooltips="1" connect="1" arrows="1" fold="1" page="1" pageScale="1" pageWidth="827" pageHeight="1169" math="0" shadow="0">
      <root>
        <mxCell id="0" />
        <mxCell id="1" parent="0" />
        <mxCell id="Xool3pEgONQbMumqACIe-8" value="" style="verticalLabelPosition=bottom;verticalAlign=top;html=1;shape=mxgraph.basic.rect;fillColor2=none;strokeWidth=1;size=20;indent=5;" vertex="1" parent="1">
          <mxGeometry x="100" y="205" width="40" height="60" as="geometry" />
        </mxCell>
        <mxCell id="Xool3pEgONQbMumqACIe-9" value="" style="verticalLabelPosition=bottom;verticalAlign=top;html=1;shape=mxgraph.basic.rect;fillColor2=none;strokeWidth=1;size=20;indent=5;" vertex="1" parent="1">
          <mxGeometry x="170" y="205" width="40" height="60" as="geometry" />
        </mxCell>
        <mxCell id="Xool3pEgONQbMumqACIe-10" value="" style="verticalLabelPosition=bottom;verticalAlign=top;html=1;shape=mxgraph.basic.rect;fillColor2=none;strokeWidth=1;size=20;indent=5;" vertex="1" parent="1">
          <mxGeometry x="230" y="205" width="110" height="60" as="geometry" />
        </mxCell>
        <mxCell id="Xool3pEgONQbMumqACIe-11" value="" style="verticalLabelPosition=bottom;verticalAlign=top;html=1;shape=mxgraph.basic.rect;fillColor2=none;strokeWidth=1;size=20;indent=5;" vertex="1" parent="1">
          <mxGeometry x="358.5" y="205" width="81.5" height="60" as="geometry" />
        </mxCell>
        <mxCell id="Xool3pEgONQbMumqACIe-6" value="" style="verticalLabelPosition=bottom;verticalAlign=top;html=1;shape=mxgraph.basic.rect;fillColor2=none;strokeWidth=1;size=20;indent=5;" vertex="1" parent="1">
          <mxGeometry x="40" y="205" width="40" height="60" as="geometry" />
        </mxCell>
        <mxCell id="Xool3pEgONQbMumqACIe-5" value="" style="verticalLabelPosition=bottom;verticalAlign=top;html=1;shape=mxgraph.basic.rect;fillColor2=none;strokeWidth=1;size=20;indent=5;" vertex="1" parent="1">
          <mxGeometry x="-10" y="205" width="30" height="60" as="geometry" />
        </mxCell>
        <mxCell id="Xool3pEgONQbMumqACIe-1" value="X&amp;nbsp; &amp;nbsp; XX&amp;nbsp; &amp;nbsp; XX&amp;nbsp; &amp;nbsp; XX&amp;nbsp; &amp;nbsp; XXXXX&amp;nbsp; &amp;nbsp; XXXX" style="text;html=1;strokeColor=none;fillColor=none;align=center;verticalAlign=middle;whiteSpace=wrap;rounded=0;fontSize=27;" vertex="1" parent="1">
          <mxGeometry x="-57" y="220" width="536" height="30" as="geometry" />
        </mxCell>
        <mxCell id="Xool3pEgONQbMumqACIe-3" value="d XX XX XX XXXXX XXXX" style="text;html=1;strokeColor=none;fillColor=none;align=center;verticalAlign=middle;whiteSpace=wrap;rounded=0;fontSize=27;" vertex="1" parent="1">
          <mxGeometry x="100" y="50" width="536" height="30" as="geometry" />
        </mxCell>
        <mxCell id="Xool3pEgONQbMumqACIe-13" value="" style="edgeStyle=segmentEdgeStyle;endArrow=classic;html=1;curved=0;rounded=0;endSize=8;startSize=8;entryX=0.476;entryY=1.027;entryDx=0;entryDy=0;entryPerimeter=0;" edge="1" parent="1" target="Xool3pEgONQbMumqACIe-5">
          <mxGeometry width="50" height="50" relative="1" as="geometry">
            <mxPoint x="520" y="550" as="sourcePoint" />
            <mxPoint x="210" y="390" as="targetPoint" />
            <Array as="points">
              <mxPoint x="160" y="550" />
              <mxPoint x="4" y="550" />
            </Array>
          </mxGeometry>
        </mxCell>
        <mxCell id="Xool3pEgONQbMumqACIe-14" value="" style="edgeStyle=segmentEdgeStyle;endArrow=classic;html=1;curved=0;rounded=0;endSize=8;startSize=8;entryX=0.476;entryY=1.027;entryDx=0;entryDy=0;entryPerimeter=0;" edge="1" parent="1">
          <mxGeometry width="50" height="50" relative="1" as="geometry">
            <mxPoint x="520" y="490" as="sourcePoint" />
            <mxPoint x="60" y="265" as="targetPoint" />
            <Array as="points">
              <mxPoint x="216" y="490" />
              <mxPoint x="60" y="490" />
            </Array>
          </mxGeometry>
        </mxCell>
        <mxCell id="Xool3pEgONQbMumqACIe-15" value="" style="edgeStyle=segmentEdgeStyle;endArrow=classic;html=1;curved=0;rounded=0;endSize=8;startSize=8;entryX=0.476;entryY=1.027;entryDx=0;entryDy=0;entryPerimeter=0;" edge="1" parent="1">
          <mxGeometry width="50" height="50" relative="1" as="geometry">
            <mxPoint x="520" y="438" as="sourcePoint" />
            <mxPoint x="120" y="265" as="targetPoint" />
          </mxGeometry>
        </mxCell>
        <mxCell id="Xool3pEgONQbMumqACIe-16" value="" style="edgeStyle=segmentEdgeStyle;endArrow=classic;html=1;curved=0;rounded=0;endSize=8;startSize=8;entryX=0.476;entryY=1.027;entryDx=0;entryDy=0;entryPerimeter=0;" edge="1" parent="1">
          <mxGeometry width="50" height="50" relative="1" as="geometry">
            <mxPoint x="520" y="400" as="sourcePoint" />
            <mxPoint x="190" y="265" as="targetPoint" />
            <Array as="points">
              <mxPoint x="346" y="400" />
              <mxPoint x="190" y="400" />
            </Array>
          </mxGeometry>
        </mxCell>
        <mxCell id="Xool3pEgONQbMumqACIe-17" value="" style="edgeStyle=segmentEdgeStyle;endArrow=classic;html=1;curved=0;rounded=0;endSize=8;startSize=8;entryX=0.476;entryY=1.027;entryDx=0;entryDy=0;entryPerimeter=0;" edge="1" parent="1">
          <mxGeometry width="50" height="50" relative="1" as="geometry">
            <mxPoint x="520" y="360" as="sourcePoint" />
            <mxPoint x="290" y="265" as="targetPoint" />
            <Array as="points">
              <mxPoint x="446" y="360" />
              <mxPoint x="290" y="360" />
            </Array>
          </mxGeometry>
        </mxCell>
        <mxCell id="Xool3pEgONQbMumqACIe-18" value="" style="edgeStyle=segmentEdgeStyle;endArrow=classic;html=1;curved=0;rounded=0;endSize=8;startSize=8;entryX=0.476;entryY=1.027;entryDx=0;entryDy=0;entryPerimeter=0;" edge="1" parent="1">
          <mxGeometry width="50" height="50" relative="1" as="geometry">
            <mxPoint x="520" y="320" as="sourcePoint" />
            <mxPoint x="400" y="265" as="targetPoint" />
            <Array as="points">
              <mxPoint x="400" y="320" />
            </Array>
          </mxGeometry>
        </mxCell>
        <mxCell id="Xool3pEgONQbMumqACIe-19" value="业务编码，d表示订房，t表示退房" style="text;html=1;strokeColor=none;fillColor=none;align=left;verticalAlign=middle;whiteSpace=wrap;rounded=0;fontSize=21;fontStyle=1" vertex="1" parent="1">
          <mxGeometry x="520" y="530" width="340" height="40" as="geometry" />
        </mxCell>
        <mxCell id="Xool3pEgONQbMumqACIe-21" value="年份的后两位" style="text;html=1;strokeColor=none;fillColor=none;align=left;verticalAlign=middle;whiteSpace=wrap;rounded=0;fontSize=21;fontStyle=1" vertex="1" parent="1">
          <mxGeometry x="520" y="470" width="350" height="40" as="geometry" />
        </mxCell>
        <mxCell id="Xool3pEgONQbMumqACIe-22" value="月份" style="text;html=1;strokeColor=none;fillColor=none;align=left;verticalAlign=middle;whiteSpace=wrap;rounded=0;fontSize=21;fontStyle=1" vertex="1" parent="1">
          <mxGeometry x="520" y="420" width="340" height="40" as="geometry" />
        </mxCell>
        <mxCell id="Xool3pEgONQbMumqACIe-23" value="日" style="text;html=1;strokeColor=none;fillColor=none;align=left;verticalAlign=middle;whiteSpace=wrap;rounded=0;fontSize=21;fontStyle=1" vertex="1" parent="1">
          <mxGeometry x="520" y="380" width="340" height="40" as="geometry" />
        </mxCell>
        <mxCell id="Xool3pEgONQbMumqACIe-24" value="时间戳，参考时间是系统投入使用的第一天的0:00:00:00" style="text;html=1;strokeColor=none;fillColor=none;align=left;verticalAlign=middle;whiteSpace=wrap;rounded=0;fontSize=21;fontStyle=1" vertex="1" parent="1">
          <mxGeometry x="520" y="340" width="540" height="40" as="geometry" />
        </mxCell>
        <mxCell id="Xool3pEgONQbMumqACIe-25" value="订单序号，我们认为1s内至多不会超过1w个订单" style="text;html=1;strokeColor=none;fillColor=none;align=left;verticalAlign=middle;whiteSpace=wrap;rounded=0;fontSize=21;fontStyle=1" vertex="1" parent="1">
          <mxGeometry x="520" y="300" width="540" height="40" as="geometry" />
        </mxCell>
      </root>
    </mxGraphModel>
  </diagram>
</mxfile>
